<?xml version="1.0" encoding="UTF-8"?>
<svg xmlns="http://www.w3.org/2000/svg" version="1.1" width="1613px" height="1337px" style="shape-rendering:geometricPrecision; text-rendering:geometricPrecision; image-rendering:optimizeQuality; fill-rule:evenodd; clip-rule:evenodd" xmlns:xlink="http://www.w3.org/1999/xlink">
<g><path style="opacity:0.993" fill="#fefefe" d="M 504.5,370.5 C 583.5,370.5 662.5,370.5 741.5,370.5C 733.039,408.138 724.706,445.805 716.5,483.5C 640.833,483.333 565.166,483.5 489.5,484C 481.767,484.013 474.434,485.679 467.5,489C 458.975,499.568 461.308,506.568 474.5,510C 514.512,510.133 554.512,510.8 594.5,512C 668.76,518.266 699.26,558.099 686,631.5C 669.507,716.348 618.007,760.515 531.5,764C 451.831,764.833 372.165,764.667 292.5,763.5C 309.038,726.259 325.705,689.092 342.5,652C 410.5,651.667 478.5,651.333 546.5,651C 555.189,651.107 562.689,648.273 569,642.5C 574.649,631.736 571.149,625.903 558.5,625C 518.152,624.898 477.818,624.232 437.5,623C 366.258,616.683 336.092,578.183 347,507.5C 351.547,474.481 364.214,445.148 385,419.5C 406.345,396.571 432.512,382.071 463.5,376C 477.204,373.314 490.871,371.481 504.5,370.5 Z"/></g>
<g><path style="opacity:0.992" fill="#fefefe" d="M 758.5,370.5 C 796.173,370.167 833.839,370.5 871.5,371.5C 855.631,443.346 840.464,515.346 826,587.5C 819.676,638.005 841.843,659.339 892.5,651.5C 902.895,651.487 913.061,650.821 923,649.5C 942.52,556.754 962.354,464.087 982.5,371.5C 1020.17,370.167 1057.83,370.167 1095.5,371.5C 1170.64,502.111 1244.97,633.111 1318.5,764.5C 1280.83,764.833 1243.16,764.5 1205.5,763.5C 1195.04,745.415 1184.71,727.248 1174.5,709C 1139.17,708.5 1103.83,708.333 1068.5,708.5C 1068.5,670.833 1068.5,633.167 1068.5,595.5C 1083.5,595.667 1098.5,595.5 1113.5,595C 1098.21,566.259 1082.55,537.759 1066.5,509.5C 1048.1,594.344 1029.76,679.178 1011.5,764C 946.484,764.952 881.484,764.619 816.5,763C 791.656,760.942 768.99,752.942 748.5,739C 727.895,721.973 715.395,700.14 711,673.5C 706.559,643.419 707.226,613.419 713,583.5C 727.855,512.39 743.021,441.39 758.5,370.5 Z"/></g>
<g><path style="opacity:0.969" fill="#fefefe" d="M 565.5,829.5 C 574.418,829.183 583.251,829.516 592,830.5C 601.947,861.957 611.114,893.624 619.5,925.5C 627.027,893.726 635.027,862.06 643.5,830.5C 652.141,829.502 660.808,829.169 669.5,829.5C 677.843,862.032 685.676,894.699 693,927.5C 701.247,894.845 710.58,862.512 721,830.5C 729.749,829.516 738.582,829.183 747.5,829.5C 733.976,873.573 720.143,917.573 706,961.5C 701.923,962.798 697.589,963.464 693,963.5C 688.585,963.486 684.252,963.152 680,962.5C 672.14,930.725 664.14,899.058 656,867.5C 648.636,899.289 640.803,930.955 632.5,962.5C 623.941,963.815 615.441,963.815 607,962.5C 592.697,918.281 578.864,873.948 565.5,829.5 Z"/></g>
<g><path style="opacity:0.962" fill="#fefefe" d="M 807.5,829.5 C 836.169,829.333 864.835,829.5 893.5,830C 894.833,837 894.833,844 893.5,851C 873.169,851.5 852.836,851.667 832.5,851.5C 832.5,862.5 832.5,873.5 832.5,884.5C 850.167,884.5 867.833,884.5 885.5,884.5C 885.5,891.5 885.5,898.5 885.5,905.5C 867.833,905.5 850.167,905.5 832.5,905.5C 832.5,917.833 832.5,930.167 832.5,942.5C 854.167,942.5 875.833,942.5 897.5,942.5C 897.5,949.5 897.5,956.5 897.5,963.5C 867.5,963.5 837.5,963.5 807.5,963.5C 807.5,918.833 807.5,874.167 807.5,829.5 Z"/></g>
<g><path style="opacity:0.971" fill="#fefefe" d="M 965.5,829.5 C 986.528,829.126 1007.53,829.626 1028.5,831C 1053.38,835.846 1064.21,850.679 1061,875.5C 1058.42,883.413 1053.59,889.58 1046.5,894C 1065.25,901.999 1071.75,915.832 1066,935.5C 1057.58,952.483 1043.75,961.65 1024.5,963C 1004.84,963.5 985.169,963.667 965.5,963.5C 965.5,918.833 965.5,874.167 965.5,829.5 Z M 990.5,851.5 C 1002.56,851.085 1014.56,851.585 1026.5,853C 1037.1,859.184 1039.27,867.684 1033,878.5C 1029.85,881.667 1026.01,883.501 1021.5,884C 1011.17,884.5 1000.84,884.666 990.5,884.5C 990.5,873.5 990.5,862.5 990.5,851.5 Z M 990.5,905.5 C 999.839,905.334 1009.17,905.5 1018.5,906C 1026.42,905.749 1033.25,908.249 1039,913.5C 1044.56,924.386 1042.06,932.886 1031.5,939C 1027.94,940.408 1024.28,941.408 1020.5,942C 1010.51,942.5 1000.51,942.666 990.5,942.5C 990.5,930.167 990.5,917.833 990.5,905.5 Z"/></g>
</svg>
